<?xml version="1.0" standalone="no"?>
<!DOCTYPE svg PUBLIC "-//W3C//DTD SVG 20010904//EN"
 "http://www.w3.org/TR/2001/REC-SVG-20010904/DTD/svg10.dtd">
<svg version="1.0" xmlns="http://www.w3.org/2000/svg"
 width="425.000000pt" height="425.000000pt" viewBox="0 0 425.000000 425.000000"
 preserveAspectRatio="xMidYMid meet">
<metadata>
Created by potrace 1.14, written by Peter Selinger 2001-2017
</metadata>
<g transform="translate(0.000000,425.000000) scale(0.100000,-0.100000)"
fill="#000000" stroke="none">
<path d="M2380 3780 c-292 -56 -508 -163 -625 -308 -69 -85 -128 -217 -185
-412 -66 -227 -102 -323 -161 -440 -74 -144 -170 -272 -309 -411 -108 -108
-146 -139 -280 -223 -237 -151 -336 -241 -401 -369 -90 -175 -74 -388 44 -600
160 -284 498 -452 1047 -516 344 -41 1193 -60 1435 -32 707 80 1154 361 1264
793 45 174 52 594 16 868 -36 271 -81 426 -191 647 -116 236 -252 421 -445
608 -210 202 -444 333 -704 392 -108 24 -385 26 -505 3z m525 -590 c-3 -5 -10
-10 -16 -10 -5 0 -9 5 -9 10 0 6 7 10 16 10 8 0 12 -4 9 -10z m-463 -119 c6
-10 17 -17 24 -14 26 10 196 -18 261 -43 68 -25 179 -93 175 -107 -1 -4 25
-39 58 -79 33 -39 72 -96 88 -127 25 -51 27 -66 27 -171 0 -97 -4 -124 -24
-173 -26 -65 -38 -74 -16 -12 8 22 14 45 15 52 0 19 -24 5 -43 -25 l-17 -27 8
35 c4 19 7 85 7 145 0 104 -2 114 -32 175 -42 85 -93 144 -167 192 -93 60
-179 83 -311 82 -64 0 -121 -6 -135 -13 l-25 -11 25 4 c77 14 154 17 218 7 79
-12 183 -50 189 -68 6 -16 -27 -10 -38 8 -7 11 -9 10 -9 -6 -1 -18 -2 -18 -13
-4 -7 9 -22 15 -34 14 -14 -1 -23 4 -23 12 0 8 -5 11 -10 8 -6 -4 -8 -10 -5
-15 3 -5 -5 -6 -17 -3 -53 12 -204 15 -253 4 -62 -14 -141 -62 -156 -93 -17
-40 -35 -67 -62 -97 -35 -40 -43 -57 -57 -126 -16 -74 -29 -102 -30 -62 0 47
31 169 57 222 14 28 46 72 72 99 l46 49 -39 -29 c-53 -39 -110 -129 -131 -207
-12 -46 -16 -91 -13 -165 l3 -101 40 -41 c98 -102 273 -198 418 -229 l82 -18
-70 -6 c-38 -4 -74 -7 -80 -7 -15 -2 -39 5 -52 13 -29 18 -10 -13 22 -37 48
-37 80 -96 103 -191 43 -175 37 -266 -21 -336 -17 -21 -37 -39 -42 -39 -6 0
-26 -15 -45 -32 -68 -63 -118 -81 -225 -82 -59 0 -71 4 -188 67 -16 8 -40 28
-55 45 -25 27 -27 37 -27 111 0 45 -4 80 -9 78 -5 -2 -10 -11 -12 -21 -4 -25
-8 -27 -28 -13 -16 11 -17 19 -7 53 23 82 20 88 -74 139 -112 61 -125 59 -147
-25 -9 -36 -18 -67 -19 -70 -6 -15 -17 109 -18 196 -2 209 73 317 229 331 66
6 117 -8 176 -48 60 -41 79 -74 66 -115 l-10 -34 25 20 c14 11 29 20 34 20 4
0 20 4 34 10 26 10 25 11 -55 71 -45 34 -84 68 -87 75 -2 7 2 37 11 67 13 46
14 68 5 135 -19 138 15 272 91 364 46 56 138 112 234 142 86 28 106 38 64 33
-26 -2 -36 26 -18 48 17 20 27 19 42 -4z m763 -201 c11 -18 -10 -10 -40 16
l-30 25 32 -15 c17 -9 35 -20 38 -26z m-410 10 c3 -5 1 -10 -4 -10 -6 0 -11 5
-11 10 0 6 2 10 4 10 3 0 8 -4 11 -10z m-322 -62 c-89 -94 -137 -191 -154
-313 -9 -69 -6 -116 17 -224 l7 -33 -31 16 c-47 24 -102 83 -126 135 -29 63
-27 174 4 255 46 121 160 203 285 205 l39 1 -41 -42z m556 19 c19 -24 -10 -36
-39 -17 -13 9 -13 11 0 20 20 13 26 12 39 -3z m320 -473 c7 -6 10 -17 7 -23
-9 -13 -46 -15 -46 -1 0 5 -21 30 -47 56 l-48 47 60 -33 c33 -18 66 -39 74
-46z m-555 -46 c-16 -53 -24 -67 -43 -77 -39 -21 -42 -10 -7 33 20 23 36 48
36 55 0 6 5 11 11 11 6 0 8 -9 3 -22z m154 -283 c59 -18 113 -73 136 -139 39
-111 60 -232 60 -346 0 -107 -3 -123 -38 -225 -66 -197 -151 -317 -285 -404
-70 -45 -146 -70 -227 -75 -41 -3 -54 0 -54 10 0 8 -3 13 -7 12 -12 -3 -84 23
-120 43 -17 10 -34 15 -39 11 -4 -4 -4 -1 0 6 5 9 1 15 -12 19 -18 4 -36 35
-33 56 1 4 -4 7 -10 7 -5 0 -7 5 -4 10 3 6 2 10 -2 10 -5 0 -10 12 -11 28 -2
15 -4 45 -6 66 -4 44 19 93 47 102 10 3 34 8 55 10 20 3 40 10 44 17 4 7 8 8
8 2 0 -5 5 -3 10 5 7 11 10 11 10 2 0 -9 5 -10 19 -3 10 6 21 8 24 5 13 -14
51 11 75 50 26 40 29 42 74 39 38 -2 48 1 53 16 4 15 15 18 59 17 l54 -2 -40
23 c-23 13 -57 40 -77 59 -33 33 -34 35 -11 29 14 -4 29 -11 35 -16 20 -19 27
-8 8 14 -31 33 -44 64 -39 89 15 72 15 88 3 88 -7 0 -19 -21 -26 -47 -12 -45
-13 -47 -23 -23 -6 17 -6 26 2 28 6 2 8 17 4 37 -6 32 -5 33 34 40 22 3 59 4
82 0 29 -4 40 -3 35 5 -3 5 -11 8 -16 5 -5 -4 -9 5 -9 19 0 47 67 74 186 77
41 1 74 6 74 11 0 6 7 8 15 4 8 -3 15 -2 15 3 0 16 -125 36 -216 35 -80 -1
-99 -5 -157 -32 -70 -32 -73 -33 -57 -2 8 15 6 24 -10 40 -26 26 -25 32 7 65
27 26 27 27 9 41 -10 7 -23 11 -27 8 -5 -3 -9 -3 -9 0 0 12 83 47 132 55 82
14 140 12 196 -4z m-1355 -455 c3 -11 1 -18 -4 -14 -5 3 -9 12 -9 20 0 20 7
17 13 -6z m1058 -33 c-10 -9 -11 -8 -5 6 3 10 9 15 12 12 3 -3 0 -11 -7 -18z
m-1030 -14 c13 -16 12 -17 -3 -4 -10 7 -18 15 -18 17 0 8 8 3 21 -13z m88 -67
c21 -14 49 -40 62 -58 13 -18 43 -53 66 -78 24 -24 43 -49 43 -55 0 -5 18 -34
41 -64 22 -29 38 -55 35 -58 -3 -3 6 -27 20 -54 13 -27 24 -51 24 -54 0 -3 6
-13 15 -21 12 -12 13 -20 3 -37 -6 -12 -11 -24 -10 -27 4 -9 -38 -8 -44 2 -3
4 -10 5 -16 2 -5 -3 -33 5 -61 19 -94 46 -146 67 -166 67 -12 0 -21 3 -21 8 0
8 -61 38 -72 34 -5 -1 -8 3 -8 8 0 6 -11 10 -25 10 -29 0 -31 10 -11 49 40 76
171 114 263 76 19 -8 37 -15 39 -15 2 0 -24 36 -58 81 -33 44 -63 78 -66 75
-3 -3 -11 -1 -19 5 -10 9 -13 8 -13 0 0 -7 -4 -10 -9 -7 -5 4 -11 1 -13 -6 -4
-12 -27 43 -43 100 -8 28 -4 28 44 -2z m1574 -31 c-3 -9 -8 -14 -10 -11 -3 3
-2 9 2 15 9 16 15 13 8 -4z m-37 -73 c-9 -17 -21 -34 -27 -38 -6 -3 -3 5 6 20
10 14 14 26 11 26 -4 0 -1 6 6 14 20 21 21 11 4 -22z m-1556 -63 c12 -8 8 -10
-17 -7 -18 3 -30 1 -28 -3 3 -3 -6 -6 -19 -6 -13 0 -40 -13 -60 -28 -20 -15
-36 -25 -36 -21 0 3 -16 -6 -36 -19 -49 -33 -59 -31 -37 6 22 37 30 44 79 69
43 21 130 26 154 9z m530 -160 c0 -47 19 -154 25 -147 2 2 0 37 -6 78 -9 73
-5 115 10 105 5 -2 11 -31 14 -63 4 -32 19 -97 35 -145 15 -48 27 -87 26 -87
-1 0 -25 11 -53 25 -60 30 -69 52 -78 191 -5 80 -4 91 11 91 13 0 16 -11 16
-48z"/>
<path d="M2872 2914 c10 -10 20 -16 22 -13 3 3 -5 11 -17 18 -21 13 -21 12 -5
-5z"/>
<path d="M2130 1783 c0 -16 -2 -16 -11 -3 -9 13 -10 13 -6 0 6 -22 122 -61
203 -67 87 -7 143 2 151 25 4 9 11 20 17 24 20 14 0 16 -49 6 -62 -12 -198 -3
-255 17 -52 18 -50 19 -50 -2z"/>
<path d="M2034 1505 c22 -17 36 -19 36 -6 0 10 -24 21 -43 21 -7 0 -3 -7 7
-15z"/>
<path d="M1274 3038 c-17 -18 -57 -69 -90 -113 -90 -122 -154 -180 -339 -305
-261 -177 -335 -264 -335 -395 0 -74 24 -123 71 -147 98 -51 233 18 437 223
189 190 274 332 342 573 24 86 28 159 10 181 -21 26 -63 18 -96 -17z"/>
<path d="M2 2570 c0 -14 2 -19 5 -12 2 6 2 18 0 25 -3 6 -5 1 -5 -13z"/>
</g>
</svg>
